<svg xmlns="http://www.w3.org/2000/svg" xmlns:xlink="http://www.w3.org/1999/xlink" width="500" zoomAndPan="magnify" viewBox="0 0 375 374.999991" height="500" preserveAspectRatio="xMidYMid meet" version="1.0"><defs><g/><clipPath id="ae615222ef"><path d="M 122.167969 114 L 135 114 L 135 145 L 122.167969 145 Z M 122.167969 114 " clip-rule="nonzero"/></clipPath><clipPath id="ddd115fe00"><path d="M 122.167969 105 L 142 105 L 142 153 L 122.167969 153 Z M 122.167969 105 " clip-rule="nonzero"/></clipPath><clipPath id="c4a0460854"><path d="M 122.167969 101 L 147 101 L 147 159 L 122.167969 159 Z M 122.167969 101 " clip-rule="nonzero"/></clipPath><clipPath id="01c803985c"><path d="M 170 86.222656 L 231 86.222656 L 231 203 L 170 203 Z M 170 86.222656 " clip-rule="nonzero"/></clipPath><clipPath id="86a5d5741b"><path d="M 178 86.222656 L 236 86.222656 L 236 198 L 178 198 Z M 178 86.222656 " clip-rule="nonzero"/></clipPath><clipPath id="ac43d1ea6e"><path d="M 194 189 L 217 189 L 217 216.722656 L 194 216.722656 Z M 194 189 " clip-rule="nonzero"/></clipPath><clipPath id="666702d861"><path d="M 248 151 L 252.667969 151 L 252.667969 172 L 248 172 Z M 248 151 " clip-rule="nonzero"/></clipPath><clipPath id="9d9262b79e"><path d="M 240 139 L 252.667969 139 L 252.667969 181 L 240 181 Z M 240 139 " clip-rule="nonzero"/></clipPath><clipPath id="67d91ae500"><path d="M 184 86.222656 L 242 86.222656 L 242 191 L 184 191 Z M 184 86.222656 " clip-rule="nonzero"/></clipPath><clipPath id="928c14bcc9"><path d="M 188 179 L 224 179 L 224 216.722656 L 188 216.722656 Z M 188 179 " clip-rule="nonzero"/></clipPath><clipPath id="3055cbb9c7"><path d="M 163 89 L 193 89 L 193 216.722656 L 163 216.722656 Z M 163 89 " clip-rule="nonzero"/></clipPath></defs><g clip-path="url(#ae615222ef)"><path fill="#ae873b" d="M 132.625 139.722656 C 133.054688 138.894531 133.054688 137.308594 133.054688 136.34375 C 133.160156 133.824219 133.375 131.492188 133.695312 128.96875 C 134.527344 123.714844 134.230469 118.964844 134.015625 114.003906 C 133.1875 115.371094 132.222656 116.742188 131.390625 118.109375 L 131.5 118.539062 C 131.605469 120.546875 131.605469 122.535156 131.5 124.542969 C 131.179688 129.183594 130.667969 133.90625 130.132812 138.542969 L 130.132812 138.757812 L 129.917969 138.867188 C 127.617188 139.699219 125.285156 140.554688 123.089844 141.496094 C 122.875 142.324219 122.765625 143.292969 122.660156 144.230469 C 123.488281 143.800781 124.238281 143.480469 125.070312 143.292969 C 126.652344 142.648438 131.6875 141.199219 132.652344 139.699219 Z M 132.625 139.722656 " fill-opacity="1" fill-rule="nonzero"/></g><g clip-path="url(#ddd115fe00)"><path fill="#ae873b" d="M 126.195312 150.585938 C 126.300781 150.480469 126.515625 150.371094 126.515625 150.371094 L 131.660156 147.742188 C 134.390625 146.375 137.660156 144.472656 138.917969 141.414062 C 139.667969 139.617188 139.75 137.632812 139.75 135.726562 C 139.855469 132.671875 139.75 129.828125 139.964844 126.769531 C 140.285156 121.300781 141.332031 113.171875 140.902344 105.71875 C 139.964844 106.765625 139 107.730469 138.0625 108.777344 C 138.0625 111.402344 137.957031 113.816406 137.847656 115.722656 C 137.742188 121.191406 137.3125 126.664062 137.019531 132.160156 C 136.910156 134.46875 137.125 139.429688 135.972656 141.441406 C 135.035156 143.128906 132.597656 144.285156 130.910156 145.113281 C 128.605469 146.269531 125.339844 147.851562 122.285156 149.648438 C 122.285156 150.289062 122.175781 150.90625 122.175781 151.550781 C 122.175781 152.195312 122.285156 152.488281 122.285156 152.917969 C 123.542969 152.195312 124.800781 151.445312 126.167969 150.613281 Z M 126.195312 150.585938 " fill-opacity="1" fill-rule="nonzero"/></g><g clip-path="url(#c4a0460854)"><path fill="#ae873b" d="M 140.929688 150.15625 C 142.507812 149.40625 143.769531 148.46875 144.625 146.886719 C 146.3125 143.503906 145.457031 137.5 145.5625 133.71875 C 145.992188 122.960938 146.3125 112.128906 145.777344 101.265625 C 144.839844 102.097656 143.875 102.847656 143.042969 103.679688 C 143.152344 106.308594 143.367188 108.9375 143.367188 111.566406 C 143.472656 117.035156 143.367188 122.507812 143.367188 128.003906 C 143.257812 131.492188 143.257812 135.058594 143.042969 138.542969 C 142.9375 140.554688 142.9375 143.292969 142.507812 145.167969 L 142.402344 145.277344 C 140.394531 148.117188 136.832031 148.546875 133.667969 149.484375 C 129.464844 150.746094 125.980469 152.4375 122.3125 154.742188 C 122.417969 155.894531 122.527344 157.050781 122.632812 158.230469 C 123.464844 157.398438 124.320312 156.539062 125.472656 155.921875 C 130.617188 152.972656 135.679688 152.4375 140.929688 150.128906 Z M 140.929688 150.15625 " fill-opacity="1" fill-rule="nonzero"/></g><path fill="#ae873b" d="M 136.214844 159.007812 C 139.160156 158.066406 142.105469 157.316406 145.054688 156.59375 C 146.421875 156.269531 148.429688 155.84375 149.472656 154.902344 C 150.519531 153.859375 150.839844 152.0625 151.054688 150.585938 C 151.484375 147.421875 151.484375 143.855469 151.589844 140.582031 C 151.695312 133.851562 152.847656 112.664062 151.695312 96.976562 C 150.757812 97.511719 149.902344 98.128906 148.964844 98.878906 C 149.582031 110.144531 149.394531 121.621094 148.964844 132.914062 C 148.859375 137.765625 148.859375 142.699219 148.644531 147.449219 C 148.535156 149.03125 148.535156 151.660156 147.277344 152.8125 C 146.234375 153.75 143.6875 154.070312 142.320312 154.394531 C 138.542969 155.144531 135.0625 156.296875 131.578125 157.878906 C 128.3125 159.355469 125.578125 161.257812 123.488281 164.101562 C 123.8125 165.46875 124.027344 166.730469 124.320312 167.992188 C 126.625 163.886719 130.105469 161.152344 136.214844 159.035156 Z M 136.214844 159.007812 " fill-opacity="1" fill-rule="nonzero"/><path fill="#ae873b" d="M 208.164062 109.285156 C 207.738281 114.246094 209.746094 122.34375 210.789062 127.386719 C 211.726562 131.921875 213.953125 136.453125 218.371094 138.222656 C 221.746094 139.589844 225.523438 139.054688 228.683594 137.390625 C 230.371094 136.34375 232.460938 134.332031 233.53125 132.644531 C 236.585938 127.789062 238.996094 121.378906 240.257812 115.910156 C 240.363281 115.160156 240.578125 114.433594 240.683594 113.789062 C 240.070312 112.851562 239.425781 111.992188 238.785156 111.164062 C 238.140625 114.003906 236.988281 116.847656 235.835938 120.121094 C 233.71875 125.804688 232.140625 133.503906 225.417969 135.488281 C 220.890625 137.390625 215.960938 134.65625 214.378906 130.230469 C 212.691406 125.699219 212.90625 120.761719 211.324219 116.230469 L 211.324219 116.125 C 210.789062 107.378906 210.898438 103.492188 218.691406 97.699219 C 219.628906 96.949219 220.59375 96.4375 221.640625 95.902344 C 220.703125 95.257812 219.738281 94.75 218.90625 94.210938 C 213.226562 97.699219 208.488281 103.894531 208.164062 109.285156 Z M 208.164062 109.285156 " fill-opacity="1" fill-rule="nonzero"/><path fill="#ae873b" d="M 202.996094 119.394531 C 203.425781 123.097656 204.039062 128.03125 205.113281 131.519531 C 207.523438 139.617188 209.316406 142.566406 217.40625 145.515625 C 221.503906 146.992188 225.710938 147.421875 229.621094 145.195312 C 237.203125 140.769531 240.148438 128.246094 245.078125 121.300781 L 245.183594 121.191406 C 244.648438 120.253906 244.140625 119.289062 243.605469 118.351562 C 242.988281 119.289062 242.238281 120.148438 241.488281 121.300781 C 237.070312 127.816406 234.980469 139.832031 227.078125 143.101562 C 221.183594 145.410156 213.09375 142.378906 210.039062 136.882812 C 206.988281 131.304688 206.449219 123.820312 205.726562 117.597656 C 204.574219 108.640625 203.503906 105.796875 209.398438 98.53125 C 211.511719 95.902344 212.878906 93.785156 214.539062 92.09375 C 213.789062 91.773438 212.960938 91.371094 212.238281 91.046875 C 207.925781 95.472656 202.886719 100.621094 202.136719 106.953125 C 201.710938 110.332031 202.566406 116.015625 202.96875 119.367188 Z M 202.996094 119.394531 " fill-opacity="1" fill-rule="nonzero"/><path fill="#ae873b" d="M 126.007812 136.265625 C 127.375 134.144531 127.265625 130.472656 126.945312 127.09375 C 125.578125 130.578125 124.425781 134.253906 123.570312 138.140625 C 124.507812 137.710938 125.363281 137.097656 125.980469 136.238281 Z M 126.007812 136.265625 " fill-opacity="1" fill-rule="nonzero"/><path fill="#ae873b" d="M 225.523438 122.558594 C 229.621094 120.441406 233.210938 104.539062 227.105469 104.136719 C 220.59375 103.8125 219.203125 121.40625 225.523438 122.558594 Z M 226.460938 116.660156 L 226.03125 119.074219 C 225.09375 118.539062 225.28125 119.179688 225.175781 120.121094 L 224.558594 116.742188 C 224.878906 112.960938 224.34375 111.054688 226.03125 107.355469 L 226.246094 106.816406 L 226.675781 107.355469 C 228.253906 109.769531 226.890625 113.871094 226.460938 116.632812 Z M 226.460938 116.660156 " fill-opacity="1" fill-rule="nonzero"/><path fill="#ae873b" d="M 218.558594 102.125 C 213.925781 107.378906 215.828125 112.019531 216.039062 118.242188 C 216.253906 122.023438 215.503906 123.820312 217.515625 127.414062 C 223.085938 137.203125 230.988281 128.058594 233.398438 121.085938 C 234.765625 117.195312 236.023438 112.34375 235.917969 107.917969 C 234.871094 106.65625 233.828125 105.609375 232.648438 104.429688 C 234.550781 111.164062 231.175781 123.605469 227.90625 126.234375 C 225.28125 130.765625 220.648438 127.816406 219.390625 123.820312 C 218.558594 120.441406 217.59375 110.332031 218.664062 107.191406 C 219.601562 104.136719 223.917969 100.246094 227.613281 100.03125 C 226.675781 99.308594 225.605469 98.558594 224.667969 97.914062 C 222.253906 98.746094 220.03125 100.433594 218.558594 102.125 Z M 218.558594 102.125 " fill-opacity="1" fill-rule="nonzero"/><path fill="#ae873b" d="M 191.851562 106.335938 C 191.128906 112.851562 191.019531 119.824219 191.746094 126.339844 C 192.894531 136.128906 196.273438 147.929688 204.789062 153.617188 C 208.566406 156.136719 213.09375 159.515625 217.515625 160.347656 C 228.148438 162.546875 237.390625 156.671875 242.558594 147.714844 C 244.757812 144.042969 246.765625 140.234375 248.988281 136.558594 C 249.417969 135.703125 249.820312 134.976562 250.355469 134.144531 C 250.035156 132.992188 249.605469 131.730469 249.203125 130.550781 C 248.5625 131.492188 247.945312 132.457031 247.300781 133.394531 C 245.398438 136.238281 243.820312 139.507812 242.265625 142.566406 C 232.917969 159.839844 222.710938 162.253906 206.398438 151.523438 C 191.34375 141.519531 194.824219 120.871094 195.039062 105.503906 C 195.039062 99.496094 198.09375 92.65625 202.511719 88.019531 C 201.574219 87.695312 200.503906 87.480469 199.460938 87.265625 C 197.773438 89.386719 196.40625 91.585938 195.359375 93.382812 C 193.351562 96.4375 192.414062 102.660156 191.878906 106.335938 Z M 191.851562 106.335938 " fill-opacity="1" fill-rule="nonzero"/><path fill="#ae873b" d="M 197.316406 119.394531 C 198.253906 126.128906 198.898438 136.558594 202.460938 142.351562 C 205.191406 146.886719 209.824219 149.40625 214.675781 151.308594 C 229.195312 156.996094 237.070312 146.886719 243.070312 135.40625 L 247.917969 127.09375 C 247.488281 125.9375 246.980469 124.894531 246.445312 123.714844 C 245.292969 125.617188 244.035156 127.496094 242.988281 129.613281 C 241.195312 132.992188 239.507812 136.34375 237.417969 139.507812 C 229.621094 151.417969 220.378906 153.832031 208.488281 144.875 C 199.859375 138.355469 199.539062 117.597656 199.96875 107.703125 C 200.289062 100.21875 202.914062 94.105469 208.59375 89.679688 C 207.550781 89.359375 206.476562 89.035156 205.539062 88.742188 C 204.601562 89.574219 203.746094 90.429688 203.023438 91.261719 C 195.761719 100.003906 197.023438 108.75 197.34375 119.394531 Z M 197.316406 119.394531 " fill-opacity="1" fill-rule="nonzero"/><path fill="#ae873b" d="M 154.722656 194.703125 C 155.152344 189.957031 155.875 183.867188 149.257812 184.378906 C 146.207031 187.433594 145.992188 195.210938 147.570312 198.914062 C 148.109375 199.851562 148.832031 201.03125 150.089844 201.03125 C 152.609375 201.03125 154.402344 196.714844 154.722656 194.703125 Z M 151.457031 197.972656 L 151.347656 198.804688 L 150.8125 198.054688 C 149.125 195.640625 148.804688 189.527344 150.707031 187.21875 L 151.027344 186.792969 L 151.242188 187.328125 C 152.5 190.492188 151.777344 194.59375 151.457031 197.972656 Z M 151.457031 197.972656 " fill-opacity="1" fill-rule="nonzero"/><g clip-path="url(#01c803985c)"><path fill="#ae873b" d="M 217.191406 176.816406 C 209.613281 176.492188 201.523438 177.136719 195.523438 171.449219 C 192.683594 168.714844 192.253906 166.597656 190.671875 163.136719 C 189.199219 160.078125 187.726562 158.605469 185.207031 156.40625 C 183.519531 155.359375 179.957031 152.300781 178.78125 150.71875 C 175.109375 145.570312 174.359375 137.660156 174.253906 131.542969 C 174.144531 127.871094 174.253906 124.167969 174.359375 120.496094 C 174.464844 117.652344 174.464844 114.488281 174.144531 111.644531 C 173.824219 108.910156 172.671875 102.179688 173.527344 99.523438 C 173.957031 98.261719 175.003906 96.894531 175.644531 95.632812 C 177.226562 92.792969 178.484375 89.734375 179.636719 86.675781 C 178.804688 86.785156 177.84375 87 177.011719 87.105469 C 176.691406 88.042969 176.179688 89.117188 175.539062 90.378906 C 173.742188 94.050781 171.226562 96.0625 170.582031 100.488281 C 169.941406 104.804688 171.199219 108.910156 171.519531 113.121094 C 172.136719 125.964844 168.789062 142.191406 177.304688 153.132812 C 179.71875 156.296875 182.261719 157.238281 185.101562 159.757812 C 191.609375 165.445312 187.40625 171.234375 198.359375 176.816406 C 202.566406 179.015625 207.199219 179.335938 211.835938 179.335938 C 216.46875 179.335938 220.460938 179.121094 224.128906 180.488281 L 224.238281 180.488281 L 224.34375 180.597656 C 226.863281 185.019531 225.390625 192.71875 226.566406 197.761719 C 226.996094 199.449219 227.398438 201.140625 227.71875 202.800781 C 228.550781 202.160156 229.300781 201.542969 230.023438 200.898438 C 229.191406 197.734375 228.550781 194.890625 228.335938 191.617188 C 227.503906 180.246094 230.558594 177.296875 217.191406 176.761719 Z M 217.191406 176.816406 " fill-opacity="1" fill-rule="nonzero"/></g><g clip-path="url(#86a5d5741b)"><path fill="#ae873b" d="M 233.933594 180.167969 C 233.613281 177.539062 233.210938 173.730469 231.203125 171.851562 C 229.40625 170.054688 226.460938 170.054688 224.050781 170.269531 C 218.15625 170.808594 210.363281 171.210938 204.683594 169.4375 C 201.199219 168.285156 198.683594 166.488281 196.996094 163.21875 C 194.691406 159.007812 194.476562 154.472656 191.207031 150.480469 C 187.621094 146.269531 185.421875 145.839844 183.519531 139.722656 C 182.046875 134.761719 182.046875 128.890625 182.15625 123.714844 C 182.261719 117.597656 181.109375 111.484375 181.429688 105.394531 C 181.644531 100.648438 184.699219 92.226562 188.476562 86.222656 L 185.207031 86.222656 C 184.886719 86.945312 184.457031 87.589844 184.164062 88.339844 C 181.539062 93.597656 179.316406 98.878906 178.914062 104.886719 C 178.699219 107.730469 178.914062 110.679688 179.019531 113.523438 C 179.234375 117.410156 179.34375 121.40625 179.34375 125.324219 C 179.34375 132.699219 179.449219 140.902344 184.191406 146.910156 C 185.34375 148.386719 186.707031 149.753906 187.859375 151.230469 C 189.441406 153.132812 190.914062 155.117188 192.066406 157.34375 L 192.171875 157.34375 C 201.011719 187.675781 228.363281 163.859375 230.773438 177.457031 L 233.398438 197.785156 C 234.230469 196.957031 234.980469 196.203125 235.703125 195.375 L 235.59375 194.945312 C 234.765625 189.984375 234.445312 185.15625 233.90625 180.195312 Z M 233.933594 180.167969 " fill-opacity="1" fill-rule="nonzero"/></g><g clip-path="url(#ac43d1ea6e)"><path fill="#ae873b" d="M 209.53125 189.125 C 208.59375 189.125 207.628906 189.445312 206.800781 189.769531 C 205.648438 190.304688 204.601562 191.136719 203.636719 191.886719 C 201.441406 193.683594 202.273438 198.726562 199.433594 203.472656 C 197.960938 205.671875 196.914062 207.46875 196.273438 210.097656 C 195.84375 212.109375 195.335938 214.199219 194.90625 216.320312 C 195.84375 216.210938 196.808594 216.105469 197.746094 215.996094 C 198.386719 212.324219 199.324219 208.945312 200.371094 206.933594 C 202.671875 203.042969 203.210938 203.445312 204.253906 198.726562 C 205.085938 195.023438 205.300781 192.503906 209.503906 191.992188 L 209.71875 191.992188 L 209.824219 192.101562 C 214.351562 195.882812 214.03125 204.839844 213.203125 211.492188 C 214.140625 211.0625 215.101562 210.660156 216.039062 210.230469 C 216.363281 207.066406 216.65625 204.007812 216.363281 201.59375 C 215.933594 197.921875 214.675781 189.179688 209.53125 189.179688 Z M 209.53125 189.125 " fill-opacity="1" fill-rule="nonzero"/></g><path fill="#ae873b" d="M 159.652344 184.269531 C 157.027344 179.953125 151.027344 177.003906 146.070312 179.308594 C 145.027344 179.84375 144.0625 180.460938 143.339844 181.320312 C 140.179688 184.699219 139.457031 190.0625 139.75 194.488281 C 139.75 195.023438 139.855469 195.535156 139.855469 196.175781 C 141.117188 197.4375 142.375 198.699219 143.632812 199.851562 C 142.375 196.257812 141.730469 192.15625 142.480469 189.3125 C 143.632812 184.78125 146.796875 179.925781 152.152344 181.613281 C 156.25 182.984375 158.152344 185.71875 157.9375 190.035156 C 157.722656 193.710938 156.035156 203.527344 151.722656 206.152344 C 152.449219 206.582031 153.199219 206.984375 153.921875 207.523438 C 156.867188 205.324219 158.660156 201.300781 159.597656 198.054688 C 160.535156 194.675781 161.609375 187.40625 159.597656 184.269531 Z M 159.652344 184.269531 " fill-opacity="1" fill-rule="nonzero"/><g clip-path="url(#666702d861)"><path fill="#ae873b" d="M 248.5625 161.851562 C 248.453125 165.335938 248.773438 168.472656 249.390625 171.746094 C 250.222656 169.332031 250.863281 166.785156 251.398438 164.261719 L 251.292969 163.324219 C 251.1875 159.839844 251.613281 157.960938 252.445312 156.269531 C 252.550781 154.6875 252.660156 153.105469 252.660156 151.523438 L 252.660156 151.203125 C 250.355469 154.261719 248.5625 156.996094 248.5625 161.851562 Z M 248.5625 161.851562 " fill-opacity="1" fill-rule="nonzero"/></g><g clip-path="url(#9d9262b79e)"><path fill="#ae873b" d="M 242.988281 161.207031 C 242.558594 159.195312 244.996094 155.734375 245.933594 154.152344 C 248.050781 150.773438 250.25 147.636719 252.257812 144.363281 C 252.148438 142.890625 251.9375 141.304688 251.613281 139.832031 C 250.25 142.460938 247.195312 148.359375 244.570312 151.738281 C 235.835938 162.574219 242.347656 161.3125 244.675781 170.378906 C 245.425781 173.328125 245.828125 176.601562 246.042969 180.058594 C 246.875 178.476562 247.515625 176.894531 248.132812 175.3125 C 247.515625 170.457031 246.550781 166.460938 245.292969 164.878906 C 244.570312 163.941406 243.203125 162.464844 242.988281 161.207031 Z M 242.988281 161.207031 " fill-opacity="1" fill-rule="nonzero"/></g><g clip-path="url(#67d91ae500)"><path fill="#ae873b" d="M 236.023438 165.203125 C 232.542969 163.082031 217.726562 163.40625 213.09375 163.191406 C 202.78125 162.761719 193.832031 148.226562 190.378906 139.699219 C 186.894531 131.707031 189.949219 125.054688 188.90625 116.957031 C 187.859375 108.535156 185.742188 103.789062 189.628906 95.472656 C 191.101562 92.203125 193.003906 89.25 195.523438 86.730469 C 194.371094 86.515625 193.296875 86.410156 192.144531 86.410156 C 190.457031 88.609375 188.769531 91.15625 187.941406 92.738281 C 181.109375 105.261719 186.894531 112.019531 186.144531 124.542969 C 185.824219 130.445312 185.207031 134.332031 187.511719 140.019531 C 189.628906 145.382812 194.128906 153.1875 198.039062 157.503906 C 203.71875 163.726562 210.148438 166.140625 218.453125 166.246094 C 221.398438 166.355469 224.453125 166.140625 227.503906 166.140625 C 230.558594 166.140625 232.355469 166.246094 234.230469 167.507812 C 237.28125 169.414062 238.757812 181.402344 239.480469 190.679688 C 240.417969 189.527344 241.167969 188.375 241.996094 187.195312 C 240.953125 176.4375 239.160156 167.1875 235.996094 165.175781 Z M 236.023438 165.203125 " fill-opacity="1" fill-rule="nonzero"/></g><g clip-path="url(#928c14bcc9)"><path fill="#ae873b" d="M 211.113281 183.652344 C 208.699219 183.332031 206.585938 182.605469 204.386719 181.535156 C 202.914062 180.808594 201.121094 179.953125 199.433594 179.738281 C 198.386719 179.523438 197.421875 179.738281 196.484375 180.167969 C 195.65625 180.488281 194.691406 180.917969 194.476562 181.855469 C 193.753906 184.378906 198.574219 188.910156 196.164062 195.5625 C 194.582031 199.984375 191.851562 203.554688 190.484375 208.191406 C 189.65625 210.929688 189.011719 213.664062 188.476562 216.507812 L 188.476562 216.722656 C 189.308594 216.722656 190.269531 216.722656 191.207031 216.613281 C 191.746094 214.09375 192.359375 211.464844 193.109375 208.917969 C 194.476562 204.167969 197.101562 200.710938 198.789062 196.175781 C 200.046875 192.90625 200.261719 190.707031 198.898438 187.542969 C 198.148438 185.851562 197.53125 184.59375 197.421875 182.796875 L 197.421875 182.367188 L 197.851562 182.367188 C 199.753906 182.582031 202.378906 183.007812 203.746094 184.484375 C 204.574219 184.804688 205.539062 185.019531 206.476562 185.316406 C 206.476562 185.421875 206.585938 185.421875 206.691406 185.421875 C 207.011719 185.421875 207.523438 185.746094 207.628906 185.851562 C 209.425781 186.683594 208.460938 186.898438 210.574219 186.496094 C 212.265625 186.175781 214.140625 186.28125 215.613281 187.328125 C 219.601562 190.277344 219.496094 199.851562 219.925781 204.382812 C 220.03125 205.429688 220.140625 206.582031 220.351562 207.871094 C 221.292969 207.335938 222.148438 206.71875 223.085938 206.179688 C 222.550781 201.433594 221.933594 197.007812 221.613281 194.59375 C 220.246094 186.390625 219.496094 184.804688 211.085938 183.652344 Z M 211.113281 183.652344 " fill-opacity="1" fill-rule="nonzero"/></g><path fill="#ae873b" d="M 176.074219 181.535156 C 172.296875 173.433594 166.296875 165.738281 157.777344 162.359375 C 151.347656 159.730469 144.304688 160.160156 138.117188 163.109375 C 133.160156 165.523438 129.0625 169.4375 126.328125 174.265625 C 126.757812 175.421875 127.265625 176.574219 127.804688 177.753906 C 128.339844 176.386719 129.0625 175.019531 129.917969 173.757812 C 133.910156 167.640625 141.492188 163.539062 148.644531 163.433594 C 149.796875 163.433594 150.839844 163.433594 151.910156 163.648438 C 158.019531 164.585938 163.484375 168.5 167.476562 173.03125 C 172.214844 178.503906 176.636719 187.355469 175.269531 194.730469 L 175.269531 194.835938 L 166.859375 213.476562 C 167.6875 213.691406 168.546875 214.011719 169.378906 214.199219 L 169.914062 213.152344 C 171.066406 210.742188 172.136719 208.300781 173.394531 205.777344 C 177.816406 197.359375 180.65625 190.921875 176.128906 181.5625 Z M 176.074219 181.535156 " fill-opacity="1" fill-rule="nonzero"/><path fill="#ae873b" d="M 164.929688 173.007812 C 160.617188 168.796875 154.617188 166.675781 148.617188 167 C 142.507812 167.320312 137.042969 170.164062 133.347656 175.019531 C 131.765625 177.21875 130.617188 179.550781 129.757812 182.070312 C 130.480469 183.332031 131.230469 184.699219 132.0625 185.960938 C 133.214844 180.488281 135.839844 175.207031 140.6875 172.066406 C 144.785156 169.4375 149.957031 168.902344 154.589844 170.378906 C 158.796875 171.636719 162.464844 174.050781 165.117188 177.644531 C 170.902344 185.53125 169.214844 195.75 164.796875 203.875 C 163.859375 205.671875 163 207.550781 162.0625 209.453125 C 161.742188 209.988281 161.449219 210.605469 161.019531 211.140625 C 161.851562 211.570312 162.707031 211.867188 163.539062 212.1875 C 163.859375 211.652344 164.179688 211.140625 164.476562 210.605469 C 167.207031 205.753906 171.199219 197.867188 171.519531 192.394531 C 172.054688 185.234375 170.152344 178.183594 164.902344 173.007812 Z M 164.929688 173.007812 " fill-opacity="1" fill-rule="nonzero"/><path fill="#ae873b" d="M 209.746094 202.910156 C 204.386719 199.316406 201.949219 209.238281 201.84375 215.136719 C 204.066406 214.601562 206.261719 213.984375 208.378906 213.339844 L 208.914062 212.402344 C 210.175781 209.988281 212.800781 204.921875 209.746094 202.9375 Z M 208.378906 205.539062 C 208.164062 207.949219 207.121094 210.175781 205.96875 212.269531 L 205.539062 213.101562 L 205.324219 212.269531 C 204.601562 209.425781 205.539062 206.90625 207.84375 205.214844 L 208.460938 204.679688 L 208.351562 205.511719 Z M 208.378906 205.539062 " fill-opacity="1" fill-rule="nonzero"/><path fill="#ae873b" d="M 150.304688 173.007812 C 144.195312 172.898438 139.347656 176.386719 136.644531 181.75 C 135.382812 184.054688 134.632812 186.601562 134.230469 189.230469 C 135.167969 190.492188 136.242188 191.859375 137.285156 193.011719 C 137.394531 187.757812 138.867188 181.535156 142.964844 178.15625 C 143.394531 177.726562 143.902344 177.429688 144.4375 177.109375 C 148.644531 174.804688 154.109375 175.742188 157.910156 178.371094 C 162.867188 181.75 164.527344 187.21875 163.269531 192.90625 C 162.734375 195.132812 160.75 200.710938 159.386719 202.480469 C 158.660156 204.785156 157.910156 206.90625 156.546875 208.917969 C 157.296875 209.34375 158.019531 209.746094 158.847656 210.070312 C 162.117188 204.277344 164.742188 199.53125 166.109375 192.476562 C 168.117188 182.367188 160.535156 173.195312 150.332031 173.007812 Z M 150.304688 173.007812 " fill-opacity="1" fill-rule="nonzero"/><g clip-path="url(#3055cbb9c7)"><path fill="#ae873b" d="M 192.066406 191.539062 C 192.601562 187.945312 191.53125 184.699219 189.84375 181.535156 C 188.046875 178.15625 186.171875 174.695312 185.957031 170.886719 C 185.851562 169.304688 185.421875 168.152344 184.804688 166.785156 C 180.171875 156.566406 169.136719 160.265625 167.019531 143.828125 C 165.332031 131.089844 168.171875 117.707031 167.125 104.753906 C 166.699219 99.792969 165.867188 94.75 166.296875 89.679688 C 165.464844 90.003906 164.609375 90.324219 163.777344 90.617188 C 163.671875 95.257812 164.101562 100.300781 164.394531 104.402344 C 165.144531 117.355469 162.707031 130.738281 164.179688 143.480469 C 164.824219 149.378906 166.699219 154.421875 171.332031 158.335938 C 174.171875 160.75 178.378906 162.441406 180.707031 165.175781 C 181.03125 165.605469 181.324219 165.925781 181.539062 166.328125 C 182.796875 168.339844 183.332031 171.074219 183.84375 173.382812 C 184.59375 176.332031 185.316406 179.066406 186.894531 181.695312 C 190.78125 188.425781 190.671875 190.867188 187.003906 197.8125 C 185.636719 200.335938 184.699219 203.070312 183.949219 205.804688 C 183.011719 208.863281 182.261719 212.75 181.21875 216.34375 C 182.046875 216.453125 183.011719 216.558594 183.949219 216.558594 C 184.269531 214.871094 184.699219 213.074219 185.101562 211.410156 C 186.039062 207.414062 187.40625 203.714844 189.09375 199.933594 C 190.246094 197.304688 191.609375 194.460938 192.039062 191.511719 Z M 192.066406 191.539062 " fill-opacity="1" fill-rule="nonzero"/></g><path fill="#ae873b" d="M 175.859375 169.628906 C 173.234375 165.925781 170.179688 162.679688 166.296875 160.242188 C 164.609375 159.195312 161.664062 157.933594 160.402344 156.460938 C 157.992188 154.046875 158.609375 148.871094 158.929688 145.8125 C 160.296875 132.535156 159.359375 119.476562 159.574219 106.199219 C 159.679688 102.097656 159.464844 97.996094 159.359375 93.890625 L 159.359375 92.523438 C 158.527344 92.953125 157.671875 93.355469 156.734375 93.890625 L 156.734375 94.210938 C 156.839844 98.207031 157.054688 102.203125 157.054688 106.226562 C 156.839844 119.074219 157.589844 132.027344 156.332031 144.765625 C 156.011719 148.546875 155.179688 155.816406 158.449219 158.765625 C 159.8125 160.027344 162.226562 160.964844 164.019531 161.929688 C 167.289062 163.835938 169.804688 166.140625 172.109375 168.984375 C 177.464844 175.929688 185.046875 188.882812 180.949219 197.734375 C 179.90625 200.039062 178.324219 201.835938 177.253906 204.0625 C 176.101562 206.582031 175.671875 209.425781 174.628906 212.082031 C 174.304688 213.128906 173.796875 214.199219 173.367188 215.246094 C 174.199219 215.351562 175.164062 215.566406 176.101562 215.78125 C 176.207031 215.460938 176.316406 215.246094 176.421875 214.949219 C 177.574219 212.429688 178.109375 209.910156 178.941406 207.253906 C 179.15625 206.609375 179.476562 205.992188 179.769531 205.351562 C 180.816406 203.152344 182.394531 201.246094 183.441406 199.019531 C 187.644531 190.597656 181.03125 176.492188 175.859375 169.628906 Z M 175.859375 169.628906 " fill-opacity="1" fill-rule="nonzero"/><g fill="#ae873b" fill-opacity="1"><g transform="translate(39.681651, 256.486731)"><g><path d="M 1.0625 -17.4375 L 0.640625 -17.4375 L 1.703125 -23.53125 L 22.171875 -23.53125 L 23.25 -17.4375 L 22.828125 -17.4375 C 22.566406 -18.875 22.125 -20.003906 21.5 -20.828125 C 20.875 -21.660156 20.097656 -22.25 19.171875 -22.59375 C 18.242188 -22.9375 17.203125 -23.109375 16.046875 -23.109375 L 13.71875 -23.109375 L 13.71875 -2.15625 C 13.71875 -1.425781 13.898438 -0.953125 14.265625 -0.734375 C 14.628906 -0.523438 15.203125 -0.421875 15.984375 -0.421875 L 15.984375 0 L 7.9375 0 L 7.9375 -0.421875 C 8.71875 -0.421875 9.285156 -0.523438 9.640625 -0.734375 C 9.992188 -0.953125 10.171875 -1.425781 10.171875 -2.15625 L 10.171875 -23.109375 L 7.8125 -23.109375 C 6.664062 -23.109375 5.628906 -22.9375 4.703125 -22.59375 C 3.785156 -22.25 3.019531 -21.660156 2.40625 -20.828125 C 1.789062 -20.003906 1.34375 -18.875 1.0625 -17.4375 Z M 1.0625 -17.4375 "/></g></g></g><g fill="#ae873b" fill-opacity="1"><g transform="translate(63.566772, 256.486731)"><g><path d="M 0.96875 0 L 0.96875 -0.421875 C 1.738281 -0.421875 2.300781 -0.519531 2.65625 -0.71875 C 3.019531 -0.925781 3.203125 -1.40625 3.203125 -2.15625 L 3.203125 -21.375 C 3.203125 -22.125 3.019531 -22.597656 2.65625 -22.796875 C 2.300781 -23.003906 1.738281 -23.109375 0.96875 -23.109375 L 0.96875 -23.53125 L 8.96875 -23.53125 L 8.96875 -23.109375 C 8.21875 -23.109375 7.664062 -23.007812 7.3125 -22.8125 C 6.957031 -22.625 6.769531 -22.175781 6.75 -21.46875 L 6.75 -12.328125 L 16.65625 -12.328125 L 16.65625 -21.375 C 16.65625 -22.125 16.472656 -22.597656 16.109375 -22.796875 C 15.742188 -23.003906 15.171875 -23.109375 14.390625 -23.109375 L 14.390625 -23.53125 L 22.4375 -23.53125 L 22.4375 -23.109375 C 21.65625 -23.109375 21.085938 -23.003906 20.734375 -22.796875 C 20.378906 -22.597656 20.203125 -22.125 20.203125 -21.375 L 20.203125 -2.09375 C 20.203125 -1.363281 20.378906 -0.898438 20.734375 -0.703125 C 21.085938 -0.515625 21.65625 -0.421875 22.4375 -0.421875 L 22.4375 0 L 14.390625 0 L 14.390625 -0.421875 C 15.171875 -0.421875 15.742188 -0.519531 16.109375 -0.71875 C 16.472656 -0.925781 16.65625 -1.40625 16.65625 -2.15625 L 16.65625 -11.90625 L 6.75 -11.90625 L 6.75 -1.84375 C 6.789062 -1.238281 6.992188 -0.847656 7.359375 -0.671875 C 7.722656 -0.503906 8.257812 -0.421875 8.96875 -0.421875 L 8.96875 0 Z M 0.96875 0 "/></g></g></g><g fill="#ae873b" fill-opacity="1"><g transform="translate(86.967733, 256.486731)"><g><path d="M 0.96875 0 L 0.96875 -0.421875 C 1.675781 -0.421875 2.210938 -0.503906 2.578125 -0.671875 C 2.941406 -0.847656 3.160156 -1.238281 3.234375 -1.84375 L 3.203125 -21.375 C 3.203125 -22.125 3.019531 -22.597656 2.65625 -22.796875 C 2.300781 -23.003906 1.738281 -23.109375 0.96875 -23.109375 L 0.96875 -23.53125 L 17.65625 -23.53125 L 19.375 -18.4375 L 18.953125 -18.4375 C 18.566406 -19.65625 18.125 -20.601562 17.625 -21.28125 C 17.132812 -21.96875 16.503906 -22.4375 15.734375 -22.6875 C 14.972656 -22.945312 13.976562 -23.078125 12.75 -23.078125 C 11.195312 -23.078125 9.988281 -23.039062 9.125 -22.96875 C 8.269531 -22.894531 7.664062 -22.738281 7.3125 -22.5 C 6.957031 -22.257812 6.78125 -21.882812 6.78125 -21.375 L 6.78125 -12.5625 L 10.484375 -12.5625 C 11.648438 -12.582031 12.492188 -12.773438 13.015625 -13.140625 C 13.546875 -13.503906 13.875 -14.050781 14 -14.78125 C 14.132812 -15.507812 14.203125 -16.414062 14.203125 -17.5 L 14.625 -17.5 L 14.625 -6.8125 L 14.203125 -6.8125 C 14.203125 -7.90625 14.144531 -8.847656 14.03125 -9.640625 C 13.925781 -10.441406 13.617188 -11.054688 13.109375 -11.484375 C 12.609375 -11.921875 11.734375 -12.140625 10.484375 -12.140625 L 6.78125 -12.140625 L 6.78125 -2.15625 C 6.78125 -1.425781 7.09375 -0.953125 7.71875 -0.734375 C 8.34375 -0.523438 9.472656 -0.421875 11.109375 -0.421875 C 12.953125 -0.421875 14.460938 -0.8125 15.640625 -1.59375 C 16.816406 -2.382812 17.765625 -3.453125 18.484375 -4.796875 C 19.203125 -6.140625 19.8125 -7.628906 20.3125 -9.265625 L 20.71875 -9.265625 L 18.4375 0 Z M 0.96875 0 "/></g></g></g><g fill="#ae873b" fill-opacity="1"><g transform="translate(108.528898, 256.486731)"><g/></g></g><g fill="#ae873b" fill-opacity="1"><g transform="translate(117.566513, 256.486731)"><g><path d="M 12.90625 0.390625 C 10.695312 0.390625 8.738281 -0.109375 7.03125 -1.109375 C 5.332031 -2.109375 4.003906 -3.484375 3.046875 -5.234375 C 2.085938 -6.992188 1.609375 -9.003906 1.609375 -11.265625 C 1.609375 -13.003906 1.863281 -14.640625 2.375 -16.171875 C 2.894531 -17.703125 3.648438 -19.046875 4.640625 -20.203125 C 5.640625 -21.367188 6.84375 -22.273438 8.25 -22.921875 C 9.65625 -23.566406 11.253906 -23.890625 13.046875 -23.890625 C 14.078125 -23.890625 14.9375 -23.769531 15.625 -23.53125 C 16.3125 -23.289062 16.890625 -23.050781 17.359375 -22.8125 C 17.835938 -22.582031 18.25 -22.46875 18.59375 -22.46875 C 18.789062 -22.46875 18.984375 -22.535156 19.171875 -22.671875 C 19.367188 -22.816406 19.46875 -23.101562 19.46875 -23.53125 L 19.890625 -23.53125 L 19.890625 -15.4375 L 19.5 -15.4375 C 19.5 -18.144531 18.945312 -20.097656 17.84375 -21.296875 C 16.75 -22.503906 15.242188 -23.109375 13.328125 -23.109375 C 11.890625 -23.109375 10.578125 -22.722656 9.390625 -21.953125 C 8.210938 -21.179688 7.265625 -20.03125 6.546875 -18.5 C 5.835938 -16.96875 5.484375 -15.070312 5.484375 -12.8125 C 5.484375 -10.570312 5.835938 -8.585938 6.546875 -6.859375 C 7.265625 -5.128906 8.296875 -3.78125 9.640625 -2.8125 C 10.984375 -1.84375 12.578125 -1.359375 14.421875 -1.359375 C 15.972656 -1.359375 17.25 -1.703125 18.25 -2.390625 C 19.25 -3.078125 19.984375 -3.972656 20.453125 -5.078125 C 20.929688 -6.191406 21.171875 -7.382812 21.171875 -8.65625 L 21.59375 -8.65625 C 21.59375 -7.53125 21.425781 -6.429688 21.09375 -5.359375 C 20.757812 -4.285156 20.238281 -3.3125 19.53125 -2.4375 C 18.820312 -1.5625 17.921875 -0.867188 16.828125 -0.359375 C 15.742188 0.140625 14.4375 0.390625 12.90625 0.390625 Z M 12.90625 0.390625 "/></g></g></g><g fill="#ae873b" fill-opacity="1"><g transform="translate(140.612429, 256.486731)"><g><path d="M 1.609375 -11.8125 C 1.609375 -13.488281 1.910156 -15.054688 2.515625 -16.515625 C 3.117188 -17.984375 3.945312 -19.265625 5 -20.359375 C 6.050781 -21.460938 7.273438 -22.328125 8.671875 -22.953125 C 10.078125 -23.578125 11.578125 -23.890625 13.171875 -23.890625 C 14.765625 -23.890625 16.265625 -23.578125 17.671875 -22.953125 C 19.078125 -22.328125 20.316406 -21.460938 21.390625 -20.359375 C 22.472656 -19.265625 23.316406 -17.984375 23.921875 -16.515625 C 24.523438 -15.054688 24.828125 -13.488281 24.828125 -11.8125 C 24.828125 -10.132812 24.523438 -8.554688 23.921875 -7.078125 C 23.316406 -5.609375 22.472656 -4.3125 21.390625 -3.1875 C 20.316406 -2.070312 19.078125 -1.195312 17.671875 -0.5625 C 16.265625 0.0703125 14.765625 0.390625 13.171875 0.390625 C 11.578125 0.390625 10.078125 0.0703125 8.671875 -0.5625 C 7.273438 -1.195312 6.050781 -2.070312 5 -3.1875 C 3.945312 -4.3125 3.117188 -5.609375 2.515625 -7.078125 C 1.910156 -8.554688 1.609375 -10.132812 1.609375 -11.8125 Z M 12.84375 -23.4375 C 11.625 -23.4375 10.554688 -23.132812 9.640625 -22.53125 C 8.722656 -21.925781 7.957031 -21.097656 7.34375 -20.046875 C 6.726562 -18.992188 6.265625 -17.785156 5.953125 -16.421875 C 5.640625 -15.066406 5.484375 -13.648438 5.484375 -12.171875 C 5.484375 -10.617188 5.640625 -9.113281 5.953125 -7.65625 C 6.265625 -6.207031 6.742188 -4.910156 7.390625 -3.765625 C 8.035156 -2.628906 8.863281 -1.726562 9.875 -1.0625 C 10.882812 -0.394531 12.09375 -0.0625 13.5 -0.0625 C 14.789062 -0.0625 15.898438 -0.363281 16.828125 -0.96875 C 17.765625 -1.570312 18.539062 -2.394531 19.15625 -3.4375 C 19.769531 -4.476562 20.222656 -5.6875 20.515625 -7.0625 C 20.804688 -8.445312 20.953125 -9.910156 20.953125 -11.453125 C 20.953125 -12.960938 20.800781 -14.425781 20.5 -15.84375 C 20.195312 -17.269531 19.722656 -18.550781 19.078125 -19.6875 C 18.429688 -20.832031 17.59375 -21.742188 16.5625 -22.421875 C 15.53125 -23.097656 14.289062 -23.4375 12.84375 -23.4375 Z M 12.84375 -23.4375 "/></g></g></g><g fill="#ae873b" fill-opacity="1"><g transform="translate(167.047457, 256.486731)"><g><path d="M 0.96875 -23.109375 L 0.96875 -23.53125 L 9 -23.53125 L 9 -23.109375 C 8.226562 -23.109375 7.664062 -23.003906 7.3125 -22.796875 C 6.957031 -22.597656 6.78125 -22.125 6.78125 -21.375 L 6.78125 -2.125 C 6.78125 -1.351562 7.09375 -0.875 7.71875 -0.6875 C 8.34375 -0.507812 9.472656 -0.421875 11.109375 -0.421875 C 12.953125 -0.421875 14.460938 -0.8125 15.640625 -1.59375 C 16.816406 -2.382812 17.765625 -3.453125 18.484375 -4.796875 C 19.203125 -6.140625 19.8125 -7.628906 20.3125 -9.265625 L 20.71875 -9.265625 L 18.4375 0 L 0.96875 0 L 0.96875 -0.421875 C 1.675781 -0.421875 2.210938 -0.476562 2.578125 -0.59375 C 2.941406 -0.71875 3.148438 -1.125 3.203125 -1.8125 L 3.203125 -21.375 C 3.203125 -22.125 3.019531 -22.597656 2.65625 -22.796875 C 2.300781 -23.003906 1.738281 -23.109375 0.96875 -23.109375 Z M 0.96875 -23.109375 "/></g></g></g><g fill="#ae873b" fill-opacity="1"><g transform="translate(188.57635, 256.486731)"><g><path d="M 0.96875 -23.109375 L 0.96875 -23.53125 L 9 -23.53125 L 9 -23.109375 C 8.226562 -23.109375 7.664062 -23.003906 7.3125 -22.796875 C 6.957031 -22.597656 6.78125 -22.125 6.78125 -21.375 L 6.78125 -2.125 C 6.78125 -1.351562 7.09375 -0.875 7.71875 -0.6875 C 8.34375 -0.507812 9.472656 -0.421875 11.109375 -0.421875 C 12.953125 -0.421875 14.460938 -0.8125 15.640625 -1.59375 C 16.816406 -2.382812 17.765625 -3.453125 18.484375 -4.796875 C 19.203125 -6.140625 19.8125 -7.628906 20.3125 -9.265625 L 20.71875 -9.265625 L 18.4375 0 L 0.96875 0 L 0.96875 -0.421875 C 1.675781 -0.421875 2.210938 -0.476562 2.578125 -0.59375 C 2.941406 -0.71875 3.148438 -1.125 3.203125 -1.8125 L 3.203125 -21.375 C 3.203125 -22.125 3.019531 -22.597656 2.65625 -22.796875 C 2.300781 -23.003906 1.738281 -23.109375 0.96875 -23.109375 Z M 0.96875 -23.109375 "/></g></g></g><g fill="#ae873b" fill-opacity="1"><g transform="translate(210.105244, 256.486731)"><g><path d="M 0.96875 0 L 0.96875 -0.421875 C 1.675781 -0.421875 2.210938 -0.503906 2.578125 -0.671875 C 2.941406 -0.847656 3.160156 -1.238281 3.234375 -1.84375 L 3.203125 -21.375 C 3.203125 -22.125 3.019531 -22.597656 2.65625 -22.796875 C 2.300781 -23.003906 1.738281 -23.109375 0.96875 -23.109375 L 0.96875 -23.53125 L 17.65625 -23.53125 L 19.375 -18.4375 L 18.953125 -18.4375 C 18.566406 -19.65625 18.125 -20.601562 17.625 -21.28125 C 17.132812 -21.96875 16.503906 -22.4375 15.734375 -22.6875 C 14.972656 -22.945312 13.976562 -23.078125 12.75 -23.078125 C 11.195312 -23.078125 9.988281 -23.039062 9.125 -22.96875 C 8.269531 -22.894531 7.664062 -22.738281 7.3125 -22.5 C 6.957031 -22.257812 6.78125 -21.882812 6.78125 -21.375 L 6.78125 -12.5625 L 10.484375 -12.5625 C 11.648438 -12.582031 12.492188 -12.773438 13.015625 -13.140625 C 13.546875 -13.503906 13.875 -14.050781 14 -14.78125 C 14.132812 -15.507812 14.203125 -16.414062 14.203125 -17.5 L 14.625 -17.5 L 14.625 -6.8125 L 14.203125 -6.8125 C 14.203125 -7.90625 14.144531 -8.847656 14.03125 -9.640625 C 13.925781 -10.441406 13.617188 -11.054688 13.109375 -11.484375 C 12.609375 -11.921875 11.734375 -12.140625 10.484375 -12.140625 L 6.78125 -12.140625 L 6.78125 -2.15625 C 6.78125 -1.425781 7.09375 -0.953125 7.71875 -0.734375 C 8.34375 -0.523438 9.472656 -0.421875 11.109375 -0.421875 C 12.953125 -0.421875 14.460938 -0.8125 15.640625 -1.59375 C 16.816406 -2.382812 17.765625 -3.453125 18.484375 -4.796875 C 19.203125 -6.140625 19.8125 -7.628906 20.3125 -9.265625 L 20.71875 -9.265625 L 18.4375 0 Z M 0.96875 0 "/></g></g></g><g fill="#ae873b" fill-opacity="1"><g transform="translate(231.666409, 256.486731)"><g><path d="M 12.90625 0.390625 C 10.695312 0.390625 8.738281 -0.109375 7.03125 -1.109375 C 5.332031 -2.109375 4.003906 -3.484375 3.046875 -5.234375 C 2.085938 -6.992188 1.609375 -9.003906 1.609375 -11.265625 C 1.609375 -13.003906 1.863281 -14.640625 2.375 -16.171875 C 2.894531 -17.703125 3.648438 -19.046875 4.640625 -20.203125 C 5.640625 -21.367188 6.84375 -22.273438 8.25 -22.921875 C 9.65625 -23.566406 11.253906 -23.890625 13.046875 -23.890625 C 14.078125 -23.890625 14.9375 -23.769531 15.625 -23.53125 C 16.3125 -23.289062 16.890625 -23.050781 17.359375 -22.8125 C 17.835938 -22.582031 18.25 -22.46875 18.59375 -22.46875 C 18.789062 -22.46875 18.984375 -22.535156 19.171875 -22.671875 C 19.367188 -22.816406 19.46875 -23.101562 19.46875 -23.53125 L 19.890625 -23.53125 L 19.890625 -15.4375 L 19.5 -15.4375 C 19.5 -18.144531 18.945312 -20.097656 17.84375 -21.296875 C 16.75 -22.503906 15.242188 -23.109375 13.328125 -23.109375 C 11.890625 -23.109375 10.578125 -22.722656 9.390625 -21.953125 C 8.210938 -21.179688 7.265625 -20.03125 6.546875 -18.5 C 5.835938 -16.96875 5.484375 -15.070312 5.484375 -12.8125 C 5.484375 -10.570312 5.835938 -8.585938 6.546875 -6.859375 C 7.265625 -5.128906 8.296875 -3.78125 9.640625 -2.8125 C 10.984375 -1.84375 12.578125 -1.359375 14.421875 -1.359375 C 15.972656 -1.359375 17.25 -1.703125 18.25 -2.390625 C 19.25 -3.078125 19.984375 -3.972656 20.453125 -5.078125 C 20.929688 -6.191406 21.171875 -7.382812 21.171875 -8.65625 L 21.59375 -8.65625 C 21.59375 -7.53125 21.425781 -6.429688 21.09375 -5.359375 C 20.757812 -4.285156 20.238281 -3.3125 19.53125 -2.4375 C 18.820312 -1.5625 17.921875 -0.867188 16.828125 -0.359375 C 15.742188 0.140625 14.4375 0.390625 12.90625 0.390625 Z M 12.90625 0.390625 "/></g></g></g><g fill="#ae873b" fill-opacity="1"><g transform="translate(254.712325, 256.486731)"><g><path d="M 1.0625 -17.4375 L 0.640625 -17.4375 L 1.703125 -23.53125 L 22.171875 -23.53125 L 23.25 -17.4375 L 22.828125 -17.4375 C 22.566406 -18.875 22.125 -20.003906 21.5 -20.828125 C 20.875 -21.660156 20.097656 -22.25 19.171875 -22.59375 C 18.242188 -22.9375 17.203125 -23.109375 16.046875 -23.109375 L 13.71875 -23.109375 L 13.71875 -2.15625 C 13.71875 -1.425781 13.898438 -0.953125 14.265625 -0.734375 C 14.628906 -0.523438 15.203125 -0.421875 15.984375 -0.421875 L 15.984375 0 L 7.9375 0 L 7.9375 -0.421875 C 8.71875 -0.421875 9.285156 -0.523438 9.640625 -0.734375 C 9.992188 -0.953125 10.171875 -1.425781 10.171875 -2.15625 L 10.171875 -23.109375 L 7.8125 -23.109375 C 6.664062 -23.109375 5.628906 -22.9375 4.703125 -22.59375 C 3.785156 -22.25 3.019531 -21.660156 2.40625 -20.828125 C 1.789062 -20.003906 1.34375 -18.875 1.0625 -17.4375 Z M 1.0625 -17.4375 "/></g></g></g><g fill="#ae873b" fill-opacity="1"><g transform="translate(278.59746, 256.486731)"><g><path d="M 3.203125 -2.15625 L 3.203125 -21.375 C 3.203125 -22.125 3.019531 -22.597656 2.65625 -22.796875 C 2.300781 -23.003906 1.738281 -23.109375 0.96875 -23.109375 L 0.96875 -23.53125 L 9 -23.53125 L 9 -23.109375 C 8.226562 -23.109375 7.660156 -23.003906 7.296875 -22.796875 C 6.929688 -22.597656 6.75 -22.125 6.75 -21.375 L 6.75 -2.15625 C 6.75 -1.40625 6.929688 -0.925781 7.296875 -0.71875 C 7.660156 -0.519531 8.21875 -0.421875 8.96875 -0.421875 L 9 0 L 0.96875 0 L 0.96875 -0.421875 C 1.738281 -0.421875 2.300781 -0.519531 2.65625 -0.71875 C 3.019531 -0.925781 3.203125 -1.40625 3.203125 -2.15625 Z M 3.203125 -2.15625 "/></g></g></g><g fill="#ae873b" fill-opacity="1"><g transform="translate(288.571116, 256.486731)"><g><path d="M 0.484375 -23.53125 L 9.421875 -23.53125 L 9.421875 -23.140625 C 8.347656 -23.140625 7.625 -23.039062 7.25 -22.84375 C 6.875 -22.65625 6.859375 -22.195312 7.203125 -21.46875 L 15.4375 -4.453125 L 21.3125 -21.203125 C 21.539062 -21.890625 21.535156 -22.378906 21.296875 -22.671875 C 21.066406 -22.960938 20.445312 -23.109375 19.4375 -23.109375 L 19.4375 -23.53125 L 24.6875 -23.53125 L 24.6875 -23.109375 C 23.789062 -23.109375 23.132812 -22.976562 22.71875 -22.71875 C 22.3125 -22.46875 21.976562 -21.953125 21.71875 -21.171875 L 14.296875 0 L 13.8125 0.390625 L 3.390625 -21.203125 C 3.046875 -21.960938 2.695312 -22.46875 2.34375 -22.71875 C 1.988281 -22.976562 1.367188 -23.109375 0.484375 -23.109375 Z M 0.484375 -23.53125 "/></g></g></g><g fill="#ae873b" fill-opacity="1"><g transform="translate(313.747316, 256.486731)"><g><path d="M 0.96875 0 L 0.96875 -0.421875 C 1.675781 -0.421875 2.210938 -0.503906 2.578125 -0.671875 C 2.941406 -0.847656 3.160156 -1.238281 3.234375 -1.84375 L 3.203125 -21.375 C 3.203125 -22.125 3.019531 -22.597656 2.65625 -22.796875 C 2.300781 -23.003906 1.738281 -23.109375 0.96875 -23.109375 L 0.96875 -23.53125 L 17.65625 -23.53125 L 19.375 -18.4375 L 18.953125 -18.4375 C 18.566406 -19.65625 18.125 -20.601562 17.625 -21.28125 C 17.132812 -21.96875 16.503906 -22.4375 15.734375 -22.6875 C 14.972656 -22.945312 13.976562 -23.078125 12.75 -23.078125 C 11.195312 -23.078125 9.988281 -23.039062 9.125 -22.96875 C 8.269531 -22.894531 7.664062 -22.738281 7.3125 -22.5 C 6.957031 -22.257812 6.78125 -21.882812 6.78125 -21.375 L 6.78125 -12.5625 L 10.484375 -12.5625 C 11.648438 -12.582031 12.492188 -12.773438 13.015625 -13.140625 C 13.546875 -13.503906 13.875 -14.050781 14 -14.78125 C 14.132812 -15.507812 14.203125 -16.414062 14.203125 -17.5 L 14.625 -17.5 L 14.625 -6.8125 L 14.203125 -6.8125 C 14.203125 -7.90625 14.144531 -8.847656 14.03125 -9.640625 C 13.925781 -10.441406 13.617188 -11.054688 13.109375 -11.484375 C 12.609375 -11.921875 11.734375 -12.140625 10.484375 -12.140625 L 6.78125 -12.140625 L 6.78125 -2.15625 C 6.78125 -1.425781 7.09375 -0.953125 7.71875 -0.734375 C 8.34375 -0.523438 9.472656 -0.421875 11.109375 -0.421875 C 12.953125 -0.421875 14.460938 -0.8125 15.640625 -1.59375 C 16.816406 -2.382812 17.765625 -3.453125 18.484375 -4.796875 C 19.203125 -6.140625 19.8125 -7.628906 20.3125 -9.265625 L 20.71875 -9.265625 L 18.4375 0 Z M 0.96875 0 "/></g></g></g><g fill="#ae873b" fill-opacity="1"><g transform="translate(87.663351, 285.704675)"><g><path d="M 1.34375 0 L 1.34375 -9.796875 L 2.484375 -9.796875 L 2.484375 0 Z M 1.34375 0 "/></g></g></g><g fill="#ae873b" fill-opacity="1"><g transform="translate(94.651412, 285.704675)"><g><path d="M 5.6875 0 L 2.359375 -8.6875 L 2.3125 -8.6875 C 2.375 -8 2.40625 -7.179688 2.40625 -6.234375 L 2.40625 0 L 1.34375 0 L 1.34375 -9.796875 L 3.0625 -9.796875 L 6.171875 -1.71875 L 6.21875 -1.71875 L 9.359375 -9.796875 L 11.0625 -9.796875 L 11.0625 0 L 9.921875 0 L 9.921875 -6.3125 C 9.921875 -7.039062 9.953125 -7.828125 10.015625 -8.671875 L 9.953125 -8.671875 L 6.609375 0 Z M 5.6875 0 "/></g></g></g><g fill="#ae873b" fill-opacity="1"><g transform="translate(110.206189, 285.704675)"><g><path d="M 7.5625 -6.953125 C 7.5625 -5.953125 7.222656 -5.1875 6.546875 -4.65625 C 5.867188 -4.125 4.898438 -3.859375 3.640625 -3.859375 L 2.484375 -3.859375 L 2.484375 0 L 1.34375 0 L 1.34375 -9.796875 L 3.890625 -9.796875 C 6.335938 -9.796875 7.5625 -8.847656 7.5625 -6.953125 Z M 2.484375 -4.828125 L 3.515625 -4.828125 C 4.523438 -4.828125 5.253906 -4.988281 5.703125 -5.3125 C 6.160156 -5.644531 6.390625 -6.171875 6.390625 -6.890625 C 6.390625 -7.535156 6.175781 -8.015625 5.75 -8.328125 C 5.320312 -8.648438 4.660156 -8.8125 3.765625 -8.8125 L 2.484375 -8.8125 Z M 2.484375 -4.828125 "/></g></g></g><g fill="#ae873b" fill-opacity="1"><g transform="translate(121.631784, 285.704675)"><g><path d="M 9.859375 -4.921875 C 9.859375 -3.347656 9.460938 -2.109375 8.671875 -1.203125 C 7.878906 -0.304688 6.773438 0.140625 5.359375 0.140625 C 3.910156 0.140625 2.796875 -0.300781 2.015625 -1.1875 C 1.234375 -2.070312 0.84375 -3.316406 0.84375 -4.921875 C 0.84375 -6.523438 1.234375 -7.765625 2.015625 -8.640625 C 2.804688 -9.515625 3.925781 -9.953125 5.375 -9.953125 C 6.78125 -9.953125 7.878906 -9.503906 8.671875 -8.609375 C 9.460938 -7.722656 9.859375 -6.492188 9.859375 -4.921875 Z M 2.046875 -4.921875 C 2.046875 -3.585938 2.328125 -2.578125 2.890625 -1.890625 C 3.453125 -1.203125 4.273438 -0.859375 5.359375 -0.859375 C 6.441406 -0.859375 7.257812 -1.203125 7.8125 -1.890625 C 8.375 -2.578125 8.65625 -3.585938 8.65625 -4.921875 C 8.65625 -6.234375 8.378906 -7.226562 7.828125 -7.90625 C 7.273438 -8.59375 6.457031 -8.9375 5.375 -8.9375 C 4.28125 -8.9375 3.453125 -8.59375 2.890625 -7.90625 C 2.328125 -7.21875 2.046875 -6.222656 2.046875 -4.921875 Z M 2.046875 -4.921875 "/></g></g></g><g fill="#ae873b" fill-opacity="1"><g transform="translate(135.483942, 285.704675)"><g><path d="M 2.484375 -4.078125 L 2.484375 0 L 1.34375 0 L 1.34375 -9.796875 L 4.03125 -9.796875 C 5.238281 -9.796875 6.128906 -9.566406 6.703125 -9.109375 C 7.273438 -8.648438 7.5625 -7.957031 7.5625 -7.03125 C 7.5625 -5.738281 6.90625 -4.863281 5.59375 -4.40625 L 8.25 0 L 6.90625 0 L 4.53125 -4.078125 Z M 2.484375 -5.0625 L 4.046875 -5.0625 C 4.847656 -5.0625 5.4375 -5.21875 5.8125 -5.53125 C 6.195312 -5.851562 6.390625 -6.332031 6.390625 -6.96875 C 6.390625 -7.625 6.195312 -8.09375 5.8125 -8.375 C 5.425781 -8.664062 4.8125 -8.8125 3.96875 -8.8125 L 2.484375 -8.8125 Z M 2.484375 -5.0625 "/></g></g></g><g fill="#ae873b" fill-opacity="1"><g transform="translate(147.130735, 285.704675)"><g><path d="M 4.359375 0 L 3.21875 0 L 3.21875 -8.796875 L 0.125 -8.796875 L 0.125 -9.796875 L 7.46875 -9.796875 L 7.46875 -8.796875 L 4.359375 -8.796875 Z M 4.359375 0 "/></g></g></g><g fill="#ae873b" fill-opacity="1"><g transform="translate(157.886005, 285.704675)"><g><path d="M 6.8125 0 L 1.34375 0 L 1.34375 -9.796875 L 6.8125 -9.796875 L 6.8125 -8.796875 L 2.484375 -8.796875 L 2.484375 -5.640625 L 6.546875 -5.640625 L 6.546875 -4.625 L 2.484375 -4.625 L 2.484375 -1.015625 L 6.8125 -1.015625 Z M 6.8125 0 "/></g></g></g><g fill="#ae873b" fill-opacity="1"><g transform="translate(168.681494, 285.704675)"><g><path d="M 9.171875 -5 C 9.171875 -3.375 8.726562 -2.132812 7.84375 -1.28125 C 6.96875 -0.425781 5.707031 0 4.0625 0 L 1.34375 0 L 1.34375 -9.796875 L 4.359375 -9.796875 C 5.878906 -9.796875 7.0625 -9.375 7.90625 -8.53125 C 8.75 -7.6875 9.171875 -6.507812 9.171875 -5 Z M 7.96875 -4.953125 C 7.96875 -6.234375 7.644531 -7.195312 7 -7.84375 C 6.363281 -8.488281 5.410156 -8.8125 4.140625 -8.8125 L 2.484375 -8.8125 L 2.484375 -0.984375 L 3.875 -0.984375 C 5.238281 -0.984375 6.257812 -1.316406 6.9375 -1.984375 C 7.625 -2.648438 7.96875 -3.640625 7.96875 -4.953125 Z M 7.96875 -4.953125 "/></g></g></g><g fill="#ae873b" fill-opacity="1"><g transform="translate(181.849923, 285.704675)"><g/></g></g><g fill="#ae873b" fill-opacity="1"><g transform="translate(188.576558, 285.704675)"><g><path d="M 2.484375 0 L 1.34375 0 L 1.34375 -9.796875 L 6.8125 -9.796875 L 6.8125 -8.796875 L 2.484375 -8.796875 L 2.484375 -5.203125 L 6.546875 -5.203125 L 6.546875 -4.1875 L 2.484375 -4.1875 Z M 2.484375 0 "/></g></g></g><g fill="#ae873b" fill-opacity="1"><g transform="translate(198.822383, 285.704675)"><g><path d="M 8.75 -9.796875 L 8.75 -3.453125 C 8.75 -2.335938 8.410156 -1.457031 7.734375 -0.8125 C 7.054688 -0.175781 6.128906 0.140625 4.953125 0.140625 C 3.773438 0.140625 2.863281 -0.179688 2.21875 -0.828125 C 1.570312 -1.472656 1.25 -2.359375 1.25 -3.484375 L 1.25 -9.796875 L 2.390625 -9.796875 L 2.390625 -3.40625 C 2.390625 -2.582031 2.613281 -1.953125 3.0625 -1.515625 C 3.507812 -1.078125 4.164062 -0.859375 5.03125 -0.859375 C 5.851562 -0.859375 6.488281 -1.078125 6.9375 -1.515625 C 7.382812 -1.960938 7.609375 -2.597656 7.609375 -3.421875 L 7.609375 -9.796875 Z M 8.75 -9.796875 "/></g></g></g><g fill="#ae873b" fill-opacity="1"><g transform="translate(211.977406, 285.704675)"><g><path d="M 2.484375 -4.078125 L 2.484375 0 L 1.34375 0 L 1.34375 -9.796875 L 4.03125 -9.796875 C 5.238281 -9.796875 6.128906 -9.566406 6.703125 -9.109375 C 7.273438 -8.648438 7.5625 -7.957031 7.5625 -7.03125 C 7.5625 -5.738281 6.90625 -4.863281 5.59375 -4.40625 L 8.25 0 L 6.90625 0 L 4.53125 -4.078125 Z M 2.484375 -5.0625 L 4.046875 -5.0625 C 4.847656 -5.0625 5.4375 -5.21875 5.8125 -5.53125 C 6.195312 -5.851562 6.390625 -6.332031 6.390625 -6.96875 C 6.390625 -7.625 6.195312 -8.09375 5.8125 -8.375 C 5.425781 -8.664062 4.8125 -8.8125 3.96875 -8.8125 L 2.484375 -8.8125 Z M 2.484375 -5.0625 "/></g></g></g><g fill="#ae873b" fill-opacity="1"><g transform="translate(223.624198, 285.704675)"><g><path d="M 9 0 L 7.703125 0 L 2.34375 -8.234375 L 2.296875 -8.234375 C 2.367188 -7.265625 2.40625 -6.378906 2.40625 -5.578125 L 2.40625 0 L 1.34375 0 L 1.34375 -9.796875 L 2.640625 -9.796875 L 7.984375 -1.609375 L 8.03125 -1.609375 C 8.019531 -1.734375 8 -2.117188 7.96875 -2.765625 C 7.9375 -3.421875 7.925781 -3.890625 7.9375 -4.171875 L 7.9375 -9.796875 L 9 -9.796875 Z M 9 0 "/></g></g></g><g fill="#ae873b" fill-opacity="1"><g transform="translate(237.134486, 285.704675)"><g><path d="M 1.34375 0 L 1.34375 -9.796875 L 2.484375 -9.796875 L 2.484375 0 Z M 1.34375 0 "/></g></g></g><g fill="#ae873b" fill-opacity="1"><g transform="translate(244.122545, 285.704675)"><g><path d="M 4.359375 0 L 3.21875 0 L 3.21875 -8.796875 L 0.125 -8.796875 L 0.125 -9.796875 L 7.46875 -9.796875 L 7.46875 -8.796875 L 4.359375 -8.796875 Z M 4.359375 0 "/></g></g></g><g fill="#ae873b" fill-opacity="1"><g transform="translate(254.877815, 285.704675)"><g><path d="M 8.75 -9.796875 L 8.75 -3.453125 C 8.75 -2.335938 8.410156 -1.457031 7.734375 -0.8125 C 7.054688 -0.175781 6.128906 0.140625 4.953125 0.140625 C 3.773438 0.140625 2.863281 -0.179688 2.21875 -0.828125 C 1.570312 -1.472656 1.25 -2.359375 1.25 -3.484375 L 1.25 -9.796875 L 2.390625 -9.796875 L 2.390625 -3.40625 C 2.390625 -2.582031 2.613281 -1.953125 3.0625 -1.515625 C 3.507812 -1.078125 4.164062 -0.859375 5.03125 -0.859375 C 5.851562 -0.859375 6.488281 -1.078125 6.9375 -1.515625 C 7.382812 -1.960938 7.609375 -2.597656 7.609375 -3.421875 L 7.609375 -9.796875 Z M 8.75 -9.796875 "/></g></g></g><g fill="#ae873b" fill-opacity="1"><g transform="translate(268.032838, 285.704675)"><g><path d="M 2.484375 -4.078125 L 2.484375 0 L 1.34375 0 L 1.34375 -9.796875 L 4.03125 -9.796875 C 5.238281 -9.796875 6.128906 -9.566406 6.703125 -9.109375 C 7.273438 -8.648438 7.5625 -7.957031 7.5625 -7.03125 C 7.5625 -5.738281 6.90625 -4.863281 5.59375 -4.40625 L 8.25 0 L 6.90625 0 L 4.53125 -4.078125 Z M 2.484375 -5.0625 L 4.046875 -5.0625 C 4.847656 -5.0625 5.4375 -5.21875 5.8125 -5.53125 C 6.195312 -5.851562 6.390625 -6.332031 6.390625 -6.96875 C 6.390625 -7.625 6.195312 -8.09375 5.8125 -8.375 C 5.425781 -8.664062 4.8125 -8.8125 3.96875 -8.8125 L 2.484375 -8.8125 Z M 2.484375 -5.0625 "/></g></g></g><g fill="#ae873b" fill-opacity="1"><g transform="translate(279.679642, 285.704675)"><g><path d="M 6.8125 0 L 1.34375 0 L 1.34375 -9.796875 L 6.8125 -9.796875 L 6.8125 -8.796875 L 2.484375 -8.796875 L 2.484375 -5.640625 L 6.546875 -5.640625 L 6.546875 -4.625 L 2.484375 -4.625 L 2.484375 -1.015625 L 6.8125 -1.015625 Z M 6.8125 0 "/></g></g></g></svg>